# xmcd
#
# Track frame offsets:
#	150
#	10275
#	20563
#	37788
#	49646
#	60751
#	75537
#	88282
#	98795
#	109963
#	123550
#	142924
#	154197
#	166763
#	180296
#	190773
#	204381
#
# Disc length: 2834 seconds
#
# Revision: 2
# Processed by: cddbd v1.5.2PL0 Copyright (c) Steve Scherf et al.
# Submitted via: audiograbber 1.83.01
#
DISCID=ca0b1011
DTITLE=Chartbuster - CBESP462-03
DYEAR=2000
DGENRE=KARAOKE
TTITLE0=Brenda Lee - Rockin' Around The Christmas Tree
TTITLE1=Elvis Presley - Blue Christmas
TTITLE2=Andy Williams - Twelve days Of Christmas
TTITLE3=Nat King Cole - Christmas Song
TTITLE4=Burl Ives - Holly Jolly Christmas
TTITLE5=Bing Crosby - White Christmas
TTITLE6=Any Williams - It's The Most Wonderful Time Of The Year
TTITLE7=Country Christmas - Winter Wonderland
TTITLE8=Traditional - Happy Holidays - Holiday Season
TTITLE9=Perry Como - There Is No Christmas Like A Home Christmas
TTITLE10=Lettermen - We Three Kings
TTITLE11=Favorites - We Need A Little Christmas
TTITLE12=Jimmy Boyd - I Saw Mommy Kissing Santa Claus
TTITLE13=Traditional - Nuttin' For Christmas
TTITLE14=Bobby Helms - Nuttin' For Christmas
TTITLE15=Dr Seuss - You're A Mean On Mr Grinch
TTITLE16=Chipmunks - Chipmunk Song
EXTD=
EXTT0=
EXTT1=
EXTT2=
EXTT3=
EXTT4=
EXTT5=
EXTT6=
EXTT7=
EXTT8=
EXTT9=
EXTT10=
EXTT11=
EXTT12=
EXTT13=
EXTT14=
EXTT15=
EXTT16=
PLAYORDER=
